<svg xmlns="http://www.w3.org/2000/svg" width="600" height="350" viewBox="0 0 600 350">
<defs><linearGradient id="talha-ouro" x1="0" y1="0" x2="100%" y2="100%">
            <stop offset="0" stop-color="#fff0ae"/>
            <stop offset=".25" stop-color="#c69842"/>
            <stop offset=".5" stop-color="#f0d58a"/>
            <stop offset=".75" stop-color="#9b692b"/>
            <stop offset="1" stop-color="#e8c46a"/>
        </linearGradient></defs>
<rect x="14" y="14" width="572" height="322" fill="#0c1611" fill-opacity=".97"/>
<g fill="none">
<rect x="12" y="12" width="576" height="326" stroke="#5f421c" stroke-width="6"/>
<rect x="12" y="12" width="576" height="326" stroke="url(#talha-ouro)" stroke-width="3"/>
<rect x="17" y="17" width="566" height="316" stroke="#719bd2" stroke-width="1"/>
<rect x="21" y="21" width="558" height="308" stroke="#c4a35b" stroke-opacity=".5" stroke-width="1"/>
</g>
<g>
            <g fill="none" stroke-linecap="round" stroke-linejoin="round">
                <path d="M18 16 C24 24 38 24 44 18 C50 12 43 7 38 12 C34 17 42 20 46 17 C53 13 61 13 68 16 M16 18 C24 24 24 38 18 44 C12 50 7 43 12 38 C17 34 20 42 17 46 C13 53 13 61 16 68" stroke="#68461f" stroke-width="4"/>
                <path d="M18 16 C24 24 38 24 44 18 C50 12 43 7 38 12 C34 17 42 20 46 17 C53 13 61 13 68 16 M16 18 C24 24 24 38 18 44 C12 50 7 43 12 38 C17 34 20 42 17 46 C13 53 13 61 16 68" stroke="url(#talha-ouro)" stroke-width="2"/>
                <path d="M23 22 C34 30 46 29 56 23 C47 25 45 23 42 24 C34 27 28 23 23 22 M22 23 C30 34 29 46 23 56 C25 47 23 45 24 42 C27 34 23 28 22 23" fill="#c69d4d" stroke="#f4da95" stroke-width=".65"/>
                <path d="M27 17 Q29 8 36 6 Q32 12 35 16 Q30 14 27 17 M17 27 Q8 29 6 36 Q12 32 16 35 Q14 30 17 27" fill="#bc9040" stroke="#f0d58a" stroke-width=".7"/>
                <path d="M25 29 Q31 32 33 38 Q27 35 25 29 M29 25 Q32 31 38 33 Q35 27 29 25" fill="#e1bb64" stroke="#6e4d24" stroke-width=".7"/>
                <path d="M12 2 L22 12 L12 22 L2 12 Z" fill="#152d62" stroke="#efd18a" stroke-width="1.6"/>
                <path d="M12 5 L19 12 L12 19 L5 12 Z" stroke="#ad8f50" stroke-width=".65"/>
                <path d="M12 7 Q8 10 12 12 Q16 10 12 7 M7 12 Q10 16 12 12 Q10 8 7 12 M12 17 Q16 14 12 12 Q8 14 12 17 M17 12 Q14 8 12 12 Q14 16 17 12" fill="#f4e5bd" stroke="none"/>
                <circle cx="12" cy="12" r="1.4" fill="#e8c46a" stroke="none"/>
            </g>
        </g>
<g transform="translate(600 0) scale(-1 1)">
            <g fill="none" stroke-linecap="round" stroke-linejoin="round">
                <path d="M18 16 C24 24 38 24 44 18 C50 12 43 7 38 12 C34 17 42 20 46 17 C53 13 61 13 68 16 M16 18 C24 24 24 38 18 44 C12 50 7 43 12 38 C17 34 20 42 17 46 C13 53 13 61 16 68" stroke="#68461f" stroke-width="4"/>
                <path d="M18 16 C24 24 38 24 44 18 C50 12 43 7 38 12 C34 17 42 20 46 17 C53 13 61 13 68 16 M16 18 C24 24 24 38 18 44 C12 50 7 43 12 38 C17 34 20 42 17 46 C13 53 13 61 16 68" stroke="url(#talha-ouro)" stroke-width="2"/>
                <path d="M23 22 C34 30 46 29 56 23 C47 25 45 23 42 24 C34 27 28 23 23 22 M22 23 C30 34 29 46 23 56 C25 47 23 45 24 42 C27 34 23 28 22 23" fill="#c69d4d" stroke="#f4da95" stroke-width=".65"/>
                <path d="M27 17 Q29 8 36 6 Q32 12 35 16 Q30 14 27 17 M17 27 Q8 29 6 36 Q12 32 16 35 Q14 30 17 27" fill="#bc9040" stroke="#f0d58a" stroke-width=".7"/>
                <path d="M25 29 Q31 32 33 38 Q27 35 25 29 M29 25 Q32 31 38 33 Q35 27 29 25" fill="#e1bb64" stroke="#6e4d24" stroke-width=".7"/>
                <path d="M12 2 L22 12 L12 22 L2 12 Z" fill="#152d62" stroke="#efd18a" stroke-width="1.6"/>
                <path d="M12 5 L19 12 L12 19 L5 12 Z" stroke="#ad8f50" stroke-width=".65"/>
                <path d="M12 7 Q8 10 12 12 Q16 10 12 7 M7 12 Q10 16 12 12 Q10 8 7 12 M12 17 Q16 14 12 12 Q8 14 12 17 M17 12 Q14 8 12 12 Q14 16 17 12" fill="#f4e5bd" stroke="none"/>
                <circle cx="12" cy="12" r="1.4" fill="#e8c46a" stroke="none"/>
            </g>
        </g>
<g transform="translate(0 350) scale(1 -1)">
            <g fill="none" stroke-linecap="round" stroke-linejoin="round">
                <path d="M18 16 C24 24 38 24 44 18 C50 12 43 7 38 12 C34 17 42 20 46 17 C53 13 61 13 68 16 M16 18 C24 24 24 38 18 44 C12 50 7 43 12 38 C17 34 20 42 17 46 C13 53 13 61 16 68" stroke="#68461f" stroke-width="4"/>
                <path d="M18 16 C24 24 38 24 44 18 C50 12 43 7 38 12 C34 17 42 20 46 17 C53 13 61 13 68 16 M16 18 C24 24 24 38 18 44 C12 50 7 43 12 38 C17 34 20 42 17 46 C13 53 13 61 16 68" stroke="url(#talha-ouro)" stroke-width="2"/>
                <path d="M23 22 C34 30 46 29 56 23 C47 25 45 23 42 24 C34 27 28 23 23 22 M22 23 C30 34 29 46 23 56 C25 47 23 45 24 42 C27 34 23 28 22 23" fill="#c69d4d" stroke="#f4da95" stroke-width=".65"/>
                <path d="M27 17 Q29 8 36 6 Q32 12 35 16 Q30 14 27 17 M17 27 Q8 29 6 36 Q12 32 16 35 Q14 30 17 27" fill="#bc9040" stroke="#f0d58a" stroke-width=".7"/>
                <path d="M25 29 Q31 32 33 38 Q27 35 25 29 M29 25 Q32 31 38 33 Q35 27 29 25" fill="#e1bb64" stroke="#6e4d24" stroke-width=".7"/>
                <path d="M12 2 L22 12 L12 22 L2 12 Z" fill="#152d62" stroke="#efd18a" stroke-width="1.6"/>
                <path d="M12 5 L19 12 L12 19 L5 12 Z" stroke="#ad8f50" stroke-width=".65"/>
                <path d="M12 7 Q8 10 12 12 Q16 10 12 7 M7 12 Q10 16 12 12 Q10 8 7 12 M12 17 Q16 14 12 12 Q8 14 12 17 M17 12 Q14 8 12 12 Q14 16 17 12" fill="#f4e5bd" stroke="none"/>
                <circle cx="12" cy="12" r="1.4" fill="#e8c46a" stroke="none"/>
            </g>
        </g>
<g transform="translate(600 350) scale(-1 -1)">
            <g fill="none" stroke-linecap="round" stroke-linejoin="round">
                <path d="M18 16 C24 24 38 24 44 18 C50 12 43 7 38 12 C34 17 42 20 46 17 C53 13 61 13 68 16 M16 18 C24 24 24 38 18 44 C12 50 7 43 12 38 C17 34 20 42 17 46 C13 53 13 61 16 68" stroke="#68461f" stroke-width="4"/>
                <path d="M18 16 C24 24 38 24 44 18 C50 12 43 7 38 12 C34 17 42 20 46 17 C53 13 61 13 68 16 M16 18 C24 24 24 38 18 44 C12 50 7 43 12 38 C17 34 20 42 17 46 C13 53 13 61 16 68" stroke="url(#talha-ouro)" stroke-width="2"/>
                <path d="M23 22 C34 30 46 29 56 23 C47 25 45 23 42 24 C34 27 28 23 23 22 M22 23 C30 34 29 46 23 56 C25 47 23 45 24 42 C27 34 23 28 22 23" fill="#c69d4d" stroke="#f4da95" stroke-width=".65"/>
                <path d="M27 17 Q29 8 36 6 Q32 12 35 16 Q30 14 27 17 M17 27 Q8 29 6 36 Q12 32 16 35 Q14 30 17 27" fill="#bc9040" stroke="#f0d58a" stroke-width=".7"/>
                <path d="M25 29 Q31 32 33 38 Q27 35 25 29 M29 25 Q32 31 38 33 Q35 27 29 25" fill="#e1bb64" stroke="#6e4d24" stroke-width=".7"/>
                <path d="M12 2 L22 12 L12 22 L2 12 Z" fill="#152d62" stroke="#efd18a" stroke-width="1.6"/>
                <path d="M12 5 L19 12 L12 19 L5 12 Z" stroke="#ad8f50" stroke-width=".65"/>
                <path d="M12 7 Q8 10 12 12 Q16 10 12 7 M7 12 Q10 16 12 12 Q10 8 7 12 M12 17 Q16 14 12 12 Q8 14 12 17 M17 12 Q14 8 12 12 Q14 16 17 12" fill="#f4e5bd" stroke="none"/>
                <circle cx="12" cy="12" r="1.4" fill="#e8c46a" stroke="none"/>
            </g>
        </g>
</svg>